<svg viewBox="0 0 100 100" width="60" height="60"><defs><linearGradient id="a" x1="82.85" y1="30.41" x2="51.26" y2="105.9" gradientTransform="matrix(1, 0, 0, -1, -22.41, 110.97)" gradientUnits="userSpaceOnUse"><stop offset="0" stop-color="#6c56cc"></stop><stop offset="1" stop-color="#9785e5"></stop></linearGradient></defs><polygon points="62.61,0 30.91,17.52 18,45.45 37.57,90.47 65.35,100 70.44,89.8 81,26.39 62.61,0" fill="#34208c"></polygon><polygon points="81,26.39 61.44,14.41 34.43,35.7 65.35,100 70.44,89.8 81,26.39" fill="url(#a)"></polygon><polygon points="81,26.39 81,26.39 62.61,0 61.44,14.41 81,26.39" fill="#af9ff4"></polygon><polygon points="61.44,14.41 62.61,0 30.91,17.52 34.43,35.7 61.44,14.41" fill="#4a37a0"></polygon><polygon points="34.43,35.7 37.57,90.47 65.35,100 34.43,35.7" fill="#4a37a0"></polygon></svg>